<svg width="173" height="172" viewBox="0 0 173 172" fill="none" xmlns="http://www.w3.org/2000/svg">
<path d="M35.1818 97.9548L75.8384 104.382L65.1427 171.984V172H44.9572C20.6298 172 0.92041 152.291 0.92041 127.947V44.6346C0.92041 20.3072 20.6457 0.581909 44.9731 0.581909H94.9766L30.1196 85.2912C26.4538 90.0678 29.2309 97.0185 35.1818 97.9548Z" fill="black"/>
<path d="M172.323 44.6346V127.947C172.323 152.291 152.613 172 128.286 172H78.2664V171.984L106.466 135.168L144.71 85.1643C147.63 81.3398 145.409 75.7856 140.664 75.0398L97.4045 68.2002V68.1843L108.069 0.581909H128.27C152.597 0.581909 172.323 20.2913 172.323 44.6346Z" fill="black"/>
</svg>
